# xmcd
#
# Track frame offsets:
#	150
#	12659
#	26285
#	37483
#	50924
#	64617
#	76927
#	89833
#	103021
#	116534
#	128963
#	140936
#	152370
#	167998
#
# Disc length: 2401 seconds
#
# Revision: 0
# Processed by: cddbd v1.5.2PL0 Copyright (c) Steve Scherf et al.
# Submitted via: EasyCDDAExtractor 11.5.3.1
#
DISCID=ca095f0e
DTITLE=Joe Turner - His Greatest Recordings
DYEAR=1974
DGENRE=Blues
TTITLE0=TV Mama
TTITLE1=Still in Love
TTITLE2=Teenage Letter
TTITLE3=Sweet Sixteen
TTITLE4=Shake, Rattle and Roll 
TTITLE5=Honey Hush 
TTITLE6=Flip, Flop, And Fly
TTITLE7=Corrine, Corrina
TTITLE8=Oke-She-Moke-She-Pop
TTITLE9=Boogie Woogie Country Girl
TTITLE10=Crawdad Hole
TTITLE11=Midnight Cannonball
TTITLE12=Chains of Love
TTITLE13=The Chicken and the Hawk
EXTD=
EXTT0=
EXTT1=
EXTT2=
EXTT3=
EXTT4=
EXTT5=
EXTT6=
EXTT7=
EXTT8=
EXTT9=
EXTT10=
EXTT11=
EXTT12=
EXTT13=
PLAYORDER=
